<svg xmlns="http://www.w3.org/2000/svg" width="16" height="16" viewBox="0 0 16 16">
    <path fill="#F54B24" fill-rule="nonzero" d="M15.698 11.565l-.902.898a.35.35 0 0 1-.493 0L9.317 7.498l-2.544 2.534a.35.35 0 0 1-.493 0L3.285 7.049a.346.346 0 0 1 0-.491L9.768.102a.35.35 0 0 1 .494 0l2.994 2.982a.346.346 0 0 1 0 .491L10.713 6.11l4.985 4.965a.347.347 0 0 1 0 .49zm-5.932 2.358h-.348v-.695a.348.348 0 0 0-.35-.347H1.047a.348.348 0 0 0-.348.347v.695h-.35A.348.348 0 0 0 0 14.27v1.042c0 .192.156.348.349.348h9.417a.348.348 0 0 0 .35-.348V14.27a.348.348 0 0 0-.35-.347z"/>
</svg>
