<svg xmlns="http://www.w3.org/2000/svg" width="20" height="20" viewBox="0 0 20 20">
    <g fill="none" fill-rule="evenodd">
        <path fill="#F3F6F7" d="M-808-373H632v3486H-808z"/>
        <path fill="#F54B24" fill-rule="nonzero" d="M19.844 14.62l-1.14 1.135a.442.442 0 0 1-.624 0l-6.302-6.276-3.215 3.202a.442.442 0 0 1-.624 0l-3.786-3.77a.437.437 0 0 1 0-.621L12.348.129a.442.442 0 0 1 .624 0l3.786 3.77a.437.437 0 0 1 0 .62l-3.216 3.203 6.302 6.276a.438.438 0 0 1 0 .621zm-7.498 2.98h-.44v-.878a.44.44 0 0 0-.442-.44H1.323a.44.44 0 0 0-.441.44v.878H.44a.44.44 0 0 0-.441.44v1.317c0 .242.198.439.44.439h11.906a.44.44 0 0 0 .441-.44V18.04a.44.44 0 0 0-.441-.439z"/>
    </g>
</svg>
